# xmcd CD database file
#
# Track frame offsets:
#	150
#	20138
#	31836
#	49324
#	62396
#	71527
#	85995
#	104613
#	121482
#	132507
#	143280
#	154969
#
# Disc length: 2337 seconds
#
# Revision: 3
# Processed by: cddbd v1.4PL0 Copyright (c) Steve Scherf et al.
# Submitted via: CDex 1.50beta10
#
DISCID=a6091f0c
DTITLE=Neoera - A Tribute To Enya Performed by Neoera
DYEAR=2001
DGENRE=New Age
TTITLE0=Orinoco Flow
TTITLE1=Watermark
TTITLE2=Shepherd Moon
TTITLE3=No Holly For Miss Quinn
TTITLE4=Miss Claire Remembers
TTITLE5=River
TTITLE6=Caribbean Blue
TTITLE7=On Your Shore
TTITLE8=Lothloria
TTITLE9=From Where I am
TTITLE10=Tea House Moon
TTITLE11=How Can I Keep From Singing
EXTD=YEAR: 2001
EXTT0=
EXTT1=
EXTT2=
EXTT3=
EXTT4=
EXTT5=
EXTT6=
EXTT7=
EXTT8=
EXTT9=
EXTT10=
EXTT11=
PLAYORDER=
